<svg id="Layer_1" data-name="Layer 1" xmlns="http://www.w3.org/2000/svg" viewBox="0 0 365 360.7"><defs><style>.cls-1{fill:#021abc;}.cls-2{fill:#fe0302;}.cls-3{fill:#fefefe;}</style></defs><path class="cls-1" d="M14.49,6.28a6.53,6.53,0,0,1,5,4.56c3,7.33,6,14.66,9.19,21.89A33.91,33.91,0,0,0,33.23,40c1.22,1.54,3.11,2.54,4.4,3.54,3.72-1.33,4.8-2.89,4.89-6.51.1-4.45,0-8.92.3-13.36a15.14,15.14,0,0,1,1.6-5.64c2.49-5,5.16-9.8,7.9-14.62a29.68,29.68,0,0,1,3-3.8,7,7,0,0,1,5.2,4.91c3.21,9,6.57,18,9,27.21,1,3.57-.19,7.77-.64,11.65a10.25,10.25,0,0,0,7.86,11.26C87,57,97.09,60,106.38,64.85c5.37,2.82,10.23,6.76,14.94,10.66,8.91,7.37,17.54,15.08,26.3,22.63,6.29,5.41,13.85,7.3,21.89,8,18.49,1.67,35.81-2.88,53.08-8.91,16.09-5.63,32.58-10.12,48.93-15,3.2-1,6.53-1.45,9.81-2.11,7.18-1.45,13.59,1.29,20,3.85,4.4,1.75,8.65,3.89,13.08,5.57C319,91.33,322,95,325.47,98.22c7.95,7.18,12.47,16.26,15.67,26.11,2.08,6.39,2,13,1.07,19.7-1.58,11.84-3,23.7-4.45,35.73H91.22c-2.76-5.35-5.18-10.66-8.16-15.64-4.35-7.26-9.8-13.63-17.09-18.2-4.21-2.64-6.58-2.37-10.31,1-4.33,3.88-8.48,8-13.15,11.45-11.16,8.23-23.13,8.17-35.34,2.43-6-2.85-8.35-7.75-7.5-14.33C.74,138.12,1.82,129.81,5.18,122a21.86,21.86,0,0,1,1.69-3.12c2.59-4.07,3.33-8.54,3.54-13.29.33-7.19.9-14.39,1.76-21.54a23.86,23.86,0,0,1,5-11.53,23.49,23.49,0,0,0,2-3c2.17-4,1.31-7.44-2-10.65-5.41-5.33-10.07-11.29-11.46-19S5.49,24.53,8,17.11a31.86,31.86,0,0,1,2.61-6.28A31.37,31.37,0,0,1,14.49,6.28Z" transform="translate(0.5 0.35)"/><path class="cls-2" d="M93.41,189.71H334.83c.2,1.71.42,3.25.54,4.79.51,6.69,4.5,11.72,8.07,16.93a124.94,124.94,0,0,0,7.51,10.3,29.72,29.72,0,0,0,7.13,6.55c4.63,2.78,6.69,6.57,6.39,11.77-.23,4-.52,8.09-1,12.11-.32,2.63-1,5.22-3.52,7-2.53-1.34-2.38-3.9-2.62-6-.37-3.13-1.8-5.42-3.71-7.84-1.49-1.9-3-4.76-2.65-6.95.91-6.81-3.11-10.83-7.05-15.17-2.65-2.91-4.95-6.15-7.6-9.08a22.21,22.21,0,0,0-3.79-2.85c-2.76.74-3.61,2.31-3.82,4.33a57.89,57.89,0,0,0,1.22,20.94c2.76,10.43,5.31,20.93,8.42,31.25a21,21,0,0,1-.92,15.52,4.46,4.46,0,0,1-.85,1.55c-4.2,3.52-3.95,8.34-4,13.13-.07,9.31-.09,18.63-.46,27.93a19.58,19.58,0,0,1-2.16,7.56c-2.23,4.53-4.93,8.81-7.33,13.25-3.38,6.27-7.36,12.15-15,13.12a67.14,67.14,0,0,1-16.52,0c-2.9-.36-5.87-2.32-8.24-4.25-3.45-2.82-3.49-5.24-.71-8.72a55.57,55.57,0,0,1,5.06-5c3.64-3.5,7.36-6.92,10.86-10.56a7.15,7.15,0,0,0,1.56-3.93,34.71,34.71,0,0,0-.08-5.94c-.23-4.23.19-8.46,2.32-12.08,3.69-6.27,3.66-13,3.45-19.85-.2-6.44-.65-12.88-.43-19.31.27-7.94-2.11-14.93-5.95-21.7-2.83-5-5.16-10.22-7.81-15.28a8.58,8.58,0,0,0-5.42-4.61c-3,2-3.61,3.07-2.58,6.18a63.55,63.55,0,0,0,4.34,11,15.65,15.65,0,0,1-3.74,19.49c-6.73,5.34-12.82,11.48-19.07,17.4a5.89,5.89,0,0,0-1.59,3.62,72.42,72.42,0,0,0-.11,12.14c.72,6.47-1.45,11.57-6.47,15.36-6.1,4.6-9.46,11.05-12.84,17.56a102,102,0,0,1-5.16,9.7c-2.22,3.34-5.06,6.13-9.6,6.08-4.83-.05-9.67.05-14.5-.06-3.22-.06-5.84-1.66-8.16-3.8-2.8-2.59-3.44-4.68-1.39-7.86,3.39-5.22,7.11-10.21,10.79-15.24,7.08-9.65,14.24-19.24,21.31-28.89a17.17,17.17,0,0,0,3.18-9.71,13.61,13.61,0,0,1,1.61-6.5c4.13-6.54,3.48-13.07.4-19.54-4.24-8.93-8.79-17.71-13.27-26.53-2.07-4.06-6.88-6.35-12.18-5.5-5.65.91-11.21,2.3-16.85,3.28A226.36,226.36,0,0,1,164.38,230a11.84,11.84,0,0,0-4.4.46c-1.91.81-4.17,1.77-5.28,3.36a80.23,80.23,0,0,0-14.49,37.51c-.85,7.65-1.08,15.35,2.87,22.6a25.12,25.12,0,0,1,2.43,9.1c.5,4.38,2.86,7.29,6.24,9.6,2,1.34,4,2.5,6.08,3.69,4.56,2.67,5.09,4.63,1.61,8.56-6.35,7.19-12.89,14.22-19.44,21.24-2.26,2.43-4.79,2.17-6.8-.42-.42-.54-.71-1.39-1.26-1.6-1.39-.56-2.94-1.26-4.32-1.07-.81.11-1.78,1.74-2,2.82a37.33,37.33,0,0,0-.54,6.77c0,2.51-1.37,3.76-3.64,3.77-11,.07-22,.1-33,0-3.42-.05-5.29-2.46-4.55-5.83a21.85,21.85,0,0,1,2.7-7.14c4.33-6.61,8.93-13.07,13.54-19.49a16.89,16.89,0,0,0,3.63-10.74c-.23-6.41.59-12.58,3.58-18.44,2.16-4.23,2.32-9,2.08-13.66-.58-11.17-1.06-22.35-1.78-33.52a47.59,47.59,0,0,0-1.73-8.69c-2.88-11.1-5.86-22.18-8.77-33.27-1.13-4.3-2.17-8.63-3.22-13C93.72,191.78,93.62,190.92,93.41,189.71Z" transform="translate(0.5 0.35)"/><polygon class="cls-3" points="122.65 124 128.05 140.73 145.63 140.69 131.38 151 136.85 167.7 122.65 157.34 108.45 167.7 113.92 151 99.68 140.69 117.26 140.73 122.65 124"/><polygon class="cls-3" points="184.24 124 189.63 140.73 207.21 140.69 192.97 151 198.44 167.7 184.24 157.34 170.04 167.7 175.51 151 161.26 140.69 178.84 140.73 184.24 124"/><polygon class="cls-3" points="246.57 124 251.97 140.73 269.55 140.69 255.3 151 260.77 167.7 246.57 157.34 232.37 167.7 237.84 151 223.6 140.69 241.18 140.73 246.57 124"/><polygon class="cls-3" points="306.71 124 312.11 140.73 329.69 140.69 315.44 151 320.91 167.7 306.71 157.34 292.51 167.7 297.98 151 283.73 140.69 301.31 140.73 306.71 124"/></svg>