<svg id="Layer_1" data-name="Layer 1" xmlns="http://www.w3.org/2000/svg" xmlns:xlink="http://www.w3.org/1999/xlink" viewBox="0 0 604.04 148.97"><defs><style>.cls-1{fill:none;}.cls-2{clip-path:url(#clip-path);}.cls-3{clip-path:url(#clip-path-2);}.cls-4{clip-path:url(#clip-path-3);}.cls-5{clip-path:url(#clip-path-4);}.cls-6{clip-path:url(#clip-path-5);}.cls-7{clip-path:url(#clip-path-6);}.cls-8{clip-path:url(#clip-path-7);}.cls-9{clip-path:url(#clip-path-8);}.cls-10{clip-path:url(#clip-path-9);}.cls-11{clip-path:url(#clip-path-10);}.cls-12{fill:#ee3023;}.cls-13{fill:#fff;}</style><clipPath id="clip-path" transform="translate(-4.77 -7.01)"><rect class="cls-1" x="522.39" y="-8145.02" width="216.45" height="57.5"/></clipPath><clipPath id="clip-path-2" transform="translate(-4.77 -7.01)"><rect class="cls-1" x="234.4" y="-8005.19" width="216.45" height="57.5"/></clipPath><clipPath id="clip-path-3" transform="translate(-4.77 -7.01)"><rect class="cls-1" x="235.92" y="-7865.36" width="216.45" height="57.5"/></clipPath><clipPath id="clip-path-4" transform="translate(-4.77 -7.01)"><rect class="cls-1" x="252.27" y="-7865.36" width="216.45" height="57.5"/></clipPath><clipPath id="clip-path-5" transform="translate(-4.77 -7.01)"><rect class="cls-1" x="261.56" y="-7725.53" width="216.45" height="57.5"/></clipPath><clipPath id="clip-path-6" transform="translate(-4.77 -7.01)"><rect class="cls-1" x="2.29" y="-6886.55" width="216.45" height="57.5"/></clipPath><clipPath id="clip-path-7" transform="translate(-4.77 -7.01)"><rect class="cls-1" x="3354.97" y="-8273.23" width="216.45" height="57.5"/></clipPath><clipPath id="clip-path-8" transform="translate(-4.77 -7.01)"><rect class="cls-1" x="2374.77" y="-7912.06" width="216.45" height="57.5"/></clipPath><clipPath id="clip-path-9" transform="translate(-4.77 -7.01)"><rect class="cls-1" x="2758.1" y="-7766.44" width="216.45" height="57.5"/></clipPath><clipPath id="clip-path-10" transform="translate(-4.77 -7.01)"><rect class="cls-1" x="2262.41" y="-7405.27" width="216.45" height="57.5"/></clipPath><symbol id="a" data-name="a" viewBox="0 0 -32766 -32766"/></defs><use width="-32766" height="-32766" transform="translate(17337.73 16915.49)" xlink:href="#a"/><use width="-32766" height="-32766" transform="translate(17337.73 16915.49)" xlink:href="#a"/><use width="-32766" height="-32766" transform="translate(17337.73 16915.49)" xlink:href="#a"/><g class="cls-2"><use width="-32766" height="-32766" transform="translate(17337.73 16915.49)" xlink:href="#a"/></g><g class="cls-3"><use width="-32766" height="-32766" transform="translate(17337.73 16915.49)" xlink:href="#a"/></g><g class="cls-4"><use width="-32766" height="-32766" transform="translate(17337.73 16915.49)" xlink:href="#a"/></g><g class="cls-5"><use width="-32766" height="-32766" transform="translate(17337.73 16915.49)" xlink:href="#a"/></g><g class="cls-6"><use width="-32766" height="-32766" transform="translate(17337.73 16915.49)" xlink:href="#a"/></g><g class="cls-7"><use width="-32766" height="-32766" transform="translate(17337.73 16915.49)" xlink:href="#a"/></g><use width="-32766" height="-32766" transform="translate(17337.73 16915.49)" xlink:href="#a"/><g class="cls-8"><use width="-32766" height="-32766" transform="translate(17337.73 16915.49)" xlink:href="#a"/></g><g class="cls-9"><use width="-32766" height="-32766" transform="translate(17337.73 16915.49)" xlink:href="#a"/></g><g class="cls-10"><use width="-32766" height="-32766" transform="translate(17337.73 16915.49)" xlink:href="#a"/></g><g class="cls-11"><use width="-32766" height="-32766" transform="translate(17337.73 16915.49)" xlink:href="#a"/></g><path class="cls-12" d="M153.72,81.49A74.48,74.48,0,1,1,79.25,7a74.46,74.46,0,0,1,74.47,74.48" transform="translate(-4.77 -7.01)"/><path class="cls-13" d="M79.84,123c-20.46.07-41.75-17.39-41.85-45.44-.07-18.55,9.95-36.4,22.73-47,12.48-10.31,29.57-16.95,45.06-17a18.67,18.67,0,0,1,5.37.61C97.6,17,86.82,29.6,86.86,43.9A7.25,7.25,0,0,0,87,45.12c22.68,5.52,33,19.21,33,38.13S105.1,122.94,79.84,123" transform="translate(-4.77 -7.01)"/><path class="cls-12" d="M201.82,112.33,179.05,58h14.87l14.21,36.09L221.9,58h14.2L214,112.33Z" transform="translate(-4.77 -7.01)"/><path class="cls-12" d="M275.73,84.88a25.54,25.54,0,0,0-.79-6.44,15.58,15.58,0,0,0-2.37-5.26,12.15,12.15,0,0,0-3.83-3.5,11.36,11.36,0,0,0-10.59,0,11.87,11.87,0,0,0-3.84,3.5A15.57,15.57,0,0,0,252,78.44a26.64,26.64,0,0,0,0,13,16.73,16.73,0,0,0,2.3,5.25,11.11,11.11,0,0,0,3.84,3.57,10.68,10.68,0,0,0,5.35,1.3,10.41,10.41,0,0,0,5.3-1.3,12,12,0,0,0,3.83-3.57,16.17,16.17,0,0,0,2.37-5.25,25.44,25.44,0,0,0,.79-6.52m13.75.06a34.44,34.44,0,0,1-1.63,10.44,28.69,28.69,0,0,1-4.85,9.19,24,24,0,0,1-8.12,6.54,27.73,27.73,0,0,1-22.88,0,24.15,24.15,0,0,1-8.13-6.54A28.87,28.87,0,0,1,239,95.38a34.44,34.44,0,0,1-1.63-10.44A33.94,33.94,0,0,1,239,74.57a28.38,28.38,0,0,1,4.84-9.07A23.72,23.72,0,0,1,252,59.08a25.56,25.56,0,0,1,11.44-2.44,25.28,25.28,0,0,1,11.39,2.44,24.23,24.23,0,0,1,8.11,6.42,27.41,27.41,0,0,1,4.91,9.07,33.94,33.94,0,0,1,1.63,10.37" transform="translate(-4.77 -7.01)"/><path class="cls-12" d="M331.48,70A20.85,20.85,0,0,0,324,68.37a13,13,0,0,0-6.15,1.37,12.11,12.11,0,0,0-4.27,3.66A16.63,16.63,0,0,0,311,78.62a21.06,21.06,0,0,0-.85,5.94,28.28,28.28,0,0,0,.74,6.5,16.91,16.91,0,0,0,2.24,5.43,11.9,11.9,0,0,0,3.81,3.73,10.29,10.29,0,0,0,5.44,1.41,11.38,11.38,0,0,0,5.27-1.41,9.24,9.24,0,0,0,3.82-3.34Zm1.12,42.38-.56-4.16a17.19,17.19,0,0,1-5.06,3.77,15.89,15.89,0,0,1-7.42,1.64,20,20,0,0,1-9.88-2.37,22.13,22.13,0,0,1-7.2-6.31A29,29,0,0,1,298,95.76a39.06,39.06,0,0,1-1.5-10.82,35.08,35.08,0,0,1,1.56-10.37,27.34,27.34,0,0,1,4.78-9.08,23.64,23.64,0,0,1,8-6.41,25,25,0,0,1,11.35-2.44,30.86,30.86,0,0,1,9.22,1.57V37.14h14v75.19Z" transform="translate(-4.77 -7.01)"/><path class="cls-12" d="M384.81,86.85c-1.51.08-3.07.22-4.66.4s-3.09.44-4.53.74q-4.55.9-6.3,3.09a7.58,7.58,0,0,0-1.76,4.81,5.32,5.32,0,0,0,2,4.33,8.66,8.66,0,0,0,5.61,1.63,12.94,12.94,0,0,0,5.28-1.12,15.73,15.73,0,0,0,4.37-2.82Zm1.12,25.44-.55-4.06a15.56,15.56,0,0,1-5.77,3.93,20.44,20.44,0,0,1-7.69,1.42,19.36,19.36,0,0,1-6.74-1.19,17.68,17.68,0,0,1-5.72-3.38,16.58,16.58,0,0,1-5.54-12.69,15.19,15.19,0,0,1,5.89-12.39A23.47,23.47,0,0,1,366,80.44a38.51,38.51,0,0,1,7.35-2,53.08,53.08,0,0,1,5.94-.84c2.15-.19,3.94-.35,5.38-.5v-.8c0-3-.77-5.14-2.33-6.43A9.8,9.8,0,0,0,376,67.91a17.65,17.65,0,0,0-4.54.58,19.92,19.92,0,0,0-3.85,1.4c-1.13.57-2.13,1.13-3,1.69a21,21,0,0,0-2.09,1.52l-4.63-9.8a19.69,19.69,0,0,1,2.77-1.91,31.67,31.67,0,0,1,4.51-2.21,38,38,0,0,1,6-1.8,33.2,33.2,0,0,1,7.16-.74,27,27,0,0,1,8.23,1.19,16.75,16.75,0,0,1,6.44,3.72A17.41,17.41,0,0,1,397.16,68a25.68,25.68,0,0,1,1.52,9.4v34.92Z" transform="translate(-4.77 -7.01)"/><path class="cls-12" d="M441.87,49.54a21.59,21.59,0,0,0-2.64-1A18.27,18.27,0,0,0,434,48a7.13,7.13,0,0,0-4.89,1.75c-1.32,1.17-2,3.07-2,5.7V58h11.72V69.27H427.21v43.06h-14V69.27H406V58h7.21V55.07a26.11,26.11,0,0,1,1.35-9,15.65,15.65,0,0,1,3.78-6,14.79,14.79,0,0,1,5.69-3.4,23,23,0,0,1,7.12-1.07,30.83,30.83,0,0,1,8.39,1,26.45,26.45,0,0,1,3.88,1.3Z" transform="translate(-4.77 -7.01)"/><path class="cls-12" d="M480,84.88a26,26,0,0,0-.79-6.44,15.58,15.58,0,0,0-2.37-5.26,12,12,0,0,0-3.83-3.5,11.36,11.36,0,0,0-10.59,0,12.11,12.11,0,0,0-3.85,3.5,16.18,16.18,0,0,0-2.37,5.26,27.31,27.31,0,0,0,0,13,17.23,17.23,0,0,0,2.32,5.25,11.26,11.26,0,0,0,3.83,3.57,10.74,10.74,0,0,0,5.36,1.3,10.41,10.41,0,0,0,5.3-1.3,11.93,11.93,0,0,0,3.83-3.57,16.17,16.17,0,0,0,2.37-5.25,25.89,25.89,0,0,0,.79-6.52m13.75.06a33.84,33.84,0,0,1-1.64,10.44,28.28,28.28,0,0,1-4.84,9.19,24,24,0,0,1-8.12,6.54,27.73,27.73,0,0,1-22.88,0,24.15,24.15,0,0,1-8.13-6.54,28.87,28.87,0,0,1-4.84-9.19,34.13,34.13,0,0,1-1.63-10.44,33.64,33.64,0,0,1,1.63-10.37,28.38,28.38,0,0,1,4.84-9.07,23.72,23.72,0,0,1,8.13-6.42,25.56,25.56,0,0,1,11.44-2.44,25.28,25.28,0,0,1,11.39,2.44,24.23,24.23,0,0,1,8.11,6.42,27.2,27.2,0,0,1,4.9,9.07,33.36,33.36,0,0,1,1.64,10.37" transform="translate(-4.77 -7.01)"/><path class="cls-12" d="M537.13,112.33v-31c0-4.13-.87-7.34-2.59-9.59a8.6,8.6,0,0,0-7.22-3.38,11.3,11.3,0,0,0-6,1.69,25.94,25.94,0,0,0-4.8,3.73v38.54h-14V58h12.74l.67,4.29a25.18,25.18,0,0,1,15.67-5.63,23.24,23.24,0,0,1,7.89,1.29,15.43,15.43,0,0,1,6.2,4.12,18.84,18.84,0,0,1,4,7.32,36.89,36.89,0,0,1,1.41,10.82v32.13Z" transform="translate(-4.77 -7.01)"/><path class="cls-12" d="M594.6,78.63a14.39,14.39,0,0,0-1.19-4.9A10.43,10.43,0,0,0,591,70.35a9.69,9.69,0,0,0-3-1.93,9.57,9.57,0,0,0-3.35-.61,10.7,10.7,0,0,0-6.92,2.71c-2.18,1.8-3.47,4.5-3.85,8.11Zm-21.07,10c.3,4.58,1.72,7.9,4.29,9.92a15.56,15.56,0,0,0,9.95,3,27.34,27.34,0,0,0,5.33-.5,24.92,24.92,0,0,0,4.42-1.3,26.69,26.69,0,0,0,3.28-1.58,11.18,11.18,0,0,0,2-1.47l3.72,11.39c-.53.37-1.38.88-2.54,1.52a26.57,26.57,0,0,1-4.34,1.81,47.62,47.62,0,0,1-6.09,1.46,44.34,44.34,0,0,1-7.66.62,30.28,30.28,0,0,1-10.1-1.68,22.56,22.56,0,0,1-8.39-5.26,25.6,25.6,0,0,1-5.75-8.84,33.38,33.38,0,0,1-2.15-12.63,34.92,34.92,0,0,1,2-12.18,25.92,25.92,0,0,1,5.41-8.91,24,24,0,0,1,8-5.52,25,25,0,0,1,9.76-1.92,26.49,26.49,0,0,1,9.59,1.7,19.61,19.61,0,0,1,7.61,5.24,25.11,25.11,0,0,1,5.06,9.19,42.64,42.64,0,0,1,1.87,13.41v2.48Z" transform="translate(-4.77 -7.01)"/></svg>