<svg xmlns="http://www.w3.org/2000/svg" xmlns:xlink="http://www.w3.org/1999/xlink" viewBox="0 0 319.07 48.11"><defs><style>.cls-22222{clip-path:url(#clip-path);}</style><clipPath id="clip-path" transform="translate(-11.43 0.21)"><rect style="fill:none;" width="346.67" height="48"/></clipPath></defs><g class="cls-22222"><path style="fill:#4899ca;" d="M114.31,23.84a26.68,26.68,0,0,1-1.7,9.6,23.06,23.06,0,0,1-4.84,7.63,21.54,21.54,0,0,1-7.49,5,27.06,27.06,0,0,1-19.46,0,23.07,23.07,0,0,1-7.55-5,22.14,22.14,0,0,1-4.84-7.63,25.64,25.64,0,0,1-1.7-9.6,26.68,26.68,0,0,1,1.7-9.6,23.06,23.06,0,0,1,4.84-7.63,21.24,21.24,0,0,1,7.55-5,27.06,27.06,0,0,1,19.46,0,22.4,22.4,0,0,1,7.49,5,23.06,23.06,0,0,1,4.84,7.63A26.68,26.68,0,0,1,114.31,23.84Zm-8.93,0a21.59,21.59,0,0,0-1-6.93,15.2,15.2,0,0,0-2.92-5.23,12.93,12.93,0,0,0-4.68-3.31A16.23,16.23,0,0,0,90.6,7.25a16.68,16.68,0,0,0-6.22,1.12,12.36,12.36,0,0,0-4.68,3.31,15.15,15.15,0,0,0-3,5.23,21.55,21.55,0,0,0-1.06,6.93,21.55,21.55,0,0,0,1.06,6.93,15.15,15.15,0,0,0,3,5.23,12.5,12.5,0,0,0,4.68,3.25,16.3,16.3,0,0,0,6.22,1.12,16,16,0,0,0,6.17-1.12A13.1,13.1,0,0,0,101.45,36a14.75,14.75,0,0,0,2.92-5.23A23.07,23.07,0,0,0,105.38,23.84Z" transform="translate(-11.43 0.21)"/><path d="M37.27,29.07V47.36H28.55V29.07L11.43.27h7.71A2.75,2.75,0,0,1,21,.8a5.75,5.75,0,0,1,1.11,1.39l8.62,15.73c.48,1,.9,1.81,1.27,2.67s.69,1.65,1,2.45c.27-.8.59-1.65,1-2.51s.8-1.7,1.28-2.61L43.76,2.19A4,4,0,0,1,44.82.85,2.61,2.61,0,0,1,46.63.21h7.71ZM127.71.27v7.2h14.2V47.36h8.72V7.47h14.14V.27Zm51.63,0v7.2h14.2V47.36h8.72V7.47H216.4V.27Zm73.59,0H244L225.54,47.36h6.81a2.71,2.71,0,0,0,1.86-.64,2.76,2.76,0,0,0,1-1.39l3.51-9.6h19.46l3.51,9.6a3.49,3.49,0,0,0,1.06,1.44,3,3,0,0,0,1.86.59h6.76ZM246.71,14c.26-.7.58-1.55.85-2.51s.58-2,.9-3.09c.32,1.12.58,2.13.9,3.09s.59,1.76.85,2.45l5.69,15.68H241ZM312.05.27h-8.93L284.67,47.36h6.81a2.71,2.71,0,0,0,1.86-.64,2.76,2.76,0,0,0,1-1.39l3.51-9.6h19.46l3.5,9.6a3.52,3.52,0,0,0,1.07,1.44,2.93,2.93,0,0,0,1.86.59h6.75ZM305.78,14c.26-.7.58-1.55.85-2.51s.58-2,.9-3.09c.32,1.12.59,2.13.91,3.09s.58,1.76.85,2.45L315,29.65H300Z" transform="translate(-11.43 0.21)"/></g></svg>