<svg id="svg1936" xmlns="http://www.w3.org/2000/svg" viewBox="0 0 602.28 181.5"><defs><style>.cls-1{fill:#f90;}.cls-2{fill:#ffffff;}</style></defs><path id="path8" class="cls-1" d="M374,142.18c-35,25.8-85.73,39.57-129.41,39.57-61.24,0-116.38-22.66-158.09-60.33-3.27-3-.34-7,3.59-4.69,45,26.19,100.68,41.94,158.17,41.94A314.45,314.45,0,0,0,368.92,134c5.93-2.51,10.88,3.88,5.09,8.18" transform="translate(-0.36 -0.25)"/><path id="path10" class="cls-1" d="M388.56,125.54c-4.46-5.72-29.58-2.7-40.85-1.37-3.43.42-4-2.57-.86-4.72,20-14.07,52.82-10,56.65-5.29s-1,37.65-19.79,53.35c-2.89,2.41-5.64,1.13-4.36-2.07,4.23-10.54,13.69-34.16,9.21-39.9" transform="translate(-0.36 -0.25)"/><path id="path12" class="cls-2" d="M348.5,20.07V6.38A3.37,3.37,0,0,1,352,2.92h61.27a3.42,3.42,0,0,1,3.54,3.46V18.1c0,2-1.68,4.54-4.62,8.6L380.4,72c11.8-.29,24.25,1.47,35,7.5a6.22,6.22,0,0,1,3.25,5.32v14.6c0,2-2.2,4.33-4.51,3.12-18.85-9.88-43.89-11-64.73.11-2.12,1.15-4.35-1.16-4.35-3.15V85.66c0-2.23,0-6,2.26-9.41L384.05,23.5H352a3.39,3.39,0,0,1-3.54-3.43" transform="translate(-0.36 -0.25)"/><path id="path14" class="cls-2" d="M125,105.45H106.36a3.51,3.51,0,0,1-3.33-3.17V6.62a3.5,3.5,0,0,1,3.59-3.44H124a3.51,3.51,0,0,1,3.38,3.2V18.89h.35c4.53-12.09,13-17.73,24.53-17.73,11.67,0,19,5.64,24.2,17.73C181,6.8,191.22,1.16,202.21,1.16c7.81,0,16.36,3.23,21.57,10.46,5.9,8.05,4.7,19.75,4.7,30l0,60.37a3.52,3.52,0,0,1-3.59,3.46H206.24a3.53,3.53,0,0,1-3.35-3.46V51.29c0-4,.37-14.1-.53-17.93-1.38-6.43-5.55-8.23-11-8.23A12.4,12.4,0,0,0,180.26,33c-1.91,4.83-1.73,12.9-1.73,18.33V102a3.52,3.52,0,0,1-3.59,3.46H156.33A3.52,3.52,0,0,1,153,102l0-50.7c0-10.67,1.75-26.37-11.49-26.37-13.39,0-12.87,15.31-12.87,26.37V102a3.52,3.52,0,0,1-3.59,3.46" transform="translate(-0.36 -0.25)"/><path id="path16" class="cls-2" d="M469.51,1.16c27.66,0,42.63,23.76,42.63,54,0,29.18-16.54,52.33-42.63,52.33-27.16,0-41.94-23.76-41.94-53.35,0-29.79,15-52.94,41.94-52.94m.16,19.54c-13.74,0-14.6,18.71-14.6,30.38s-.18,36.65,14.44,36.65c14.45,0,15.13-20.13,15.13-32.4,0-8.08-.34-17.72-2.78-25.38-2.09-6.66-6.26-9.25-12.19-9.25" transform="translate(-0.36 -0.25)"/><path id="path18" class="cls-2" d="M548,105.45H529.45a3.54,3.54,0,0,1-3.36-3.46l0-95.69a3.54,3.54,0,0,1,3.6-3.12h17.27a3.56,3.56,0,0,1,3.33,2.68V20.49h.34C555.82,7.4,563.13,1.16,576,1.16c8.36,0,16.51,3,21.76,11.28,4.87,7.65,4.87,20.52,4.87,29.78v60.22a3.57,3.57,0,0,1-3.59,3H580.36a3.53,3.53,0,0,1-3.3-3v-52c0-10.46,1.2-25.77-11.67-25.77-4.54,0-8.7,3-10.78,7.65-2.62,5.85-3,11.67-3,18.12V102a3.57,3.57,0,0,1-3.64,3.46" transform="translate(-0.36 -0.25)"/><g id="use28"><path id="path30" class="cls-2" d="M299.66,59.76v-4c-13.48,0-27.72,2.88-27.72,18.77,0,8.05,4.17,13.5,11.33,13.5,5.24,0,9.94-3.22,12.9-8.46,3.67-6.45,3.49-12.51,3.49-19.77m18.79,45.43a3.89,3.89,0,0,1-4.4.45c-6.19-5.14-7.29-7.53-10.7-12.43-10.22,10.44-17.46,13.56-30.72,13.56-15.68,0-27.9-9.68-27.9-29,0-15.13,8.21-25.43,19.87-30.47,10.12-4.45,24.25-5.24,35.06-6.47V38.37c0-4.44.34-9.68-2.26-13.51-2.28-3.43-6.63-4.85-10.46-4.85-7.1,0-13.45,3.65-15,11.2-.31,1.68-1.54,3.33-3.22,3.41l-18.09-1.94a3.31,3.31,0,0,1-2.78-3.91C252,6.85,271.81.25,289.54.25c9.07,0,20.92,2.41,28.07,9.28,9.08,8.46,8.21,19.76,8.21,32.06V70.64c0,8.73,3.62,12.56,7,17.28,1.2,1.67,1.46,3.69-.06,5-3.8,3.17-10.56,9.07-14.28,12.37l-.06,0" transform="translate(-0.36 -0.25)"/></g><path id="path30-2" data-name="path30" class="cls-2" d="M55.29,59.76v-4c-13.48,0-27.71,2.88-27.71,18.77,0,8.05,4.17,13.5,11.32,13.5,5.25,0,9.94-3.22,12.9-8.46,3.67-6.45,3.49-12.51,3.49-19.77m18.8,45.43a3.91,3.91,0,0,1-4.41.45c-6.19-5.14-7.29-7.53-10.7-12.43-10.22,10.44-17.46,13.56-30.72,13.56-15.68,0-27.9-9.68-27.9-29,0-15.13,8.21-25.43,19.88-30.47C30.36,42.8,44.49,42,55.29,40.78V38.37c0-4.44.34-9.68-2.26-13.51C50.75,21.43,46.4,20,42.57,20c-7.1,0-13.45,3.65-15,11.2-.32,1.68-1.55,3.33-3.23,3.41L6.26,32.68a3.31,3.31,0,0,1-2.78-3.91C7.65,6.85,27.45.25,45.17.25c9.07,0,20.92,2.41,28.08,9.28,9.07,8.46,8.2,19.76,8.2,32.06V70.64c0,8.73,3.62,12.56,7,17.28,1.2,1.67,1.47,3.69,0,5-3.81,3.17-10.57,9.07-14.29,12.37l0,0" transform="translate(-0.36 -0.25)"/></svg>